<?xml version="1.0" encoding="UTF-8"?> <svg xmlns="http://www.w3.org/2000/svg" viewBox="0 0 48 48"><g id="airtag"><path d="M24,2A22,22,0,1,1,2,24,22,22,0,0,1,24,2m0-1A23,23,0,1,0,47,24,23,23,0,0,0,24,1Z"></path><path d="M24,6A18,18,0,1,0,42,24,18,18,0,0,0,24,6Zm.6,11a3.92,3.92,0,0,1,2.56-1.38,3.71,3.71,0,0,1-.82,2.73,3.33,3.33,0,0,1-2.58,1.32A3.43,3.43,0,0,1,24.6,17Zm5.51,13c-.71,1.08-1.7,2.43-2.94,2.44s-1.38-.72-2.87-.71-1.79.72-2.89.71-2.18-1.22-2.89-2.31c-2-3-2.18-6.57-1-8.46a4.38,4.38,0,0,1,3.52-2.13c1.3,0,2.13.72,3.21.72s1.69-.72,3.2-.72a4.28,4.28,0,0,1,3.22,1.71,3.71,3.71,0,0,0,.49,6.71A13.2,13.2,0,0,1,30.11,30Z"></path></g></svg> 